<svg width="275" height="52" viewBox="0 0 275 52" fill="none" xmlns="http://www.w3.org/2000/svg">
<path d="M0 44.8V0H8.576L27.648 31.616H23.104L41.856 0H50.368L50.496 44.8H40.768L40.704 14.912H42.496L27.52 40.064H22.848L7.552 14.912H9.728V44.8H0Z" fill="black"/>
<path d="M107.031 46.8V2H115.607L142.039 34.256H137.879V2H148.119V46.8H139.607L113.111 14.544H117.271V46.8H107.031Z" fill="black"/>
<path d="M168.455 46.8V10.448H154.119V2H193.159V10.448H178.823V46.8H168.455Z" fill="black"/>
<path d="M208.695 20.048H230.263V28.112H208.695V20.048ZM209.463 38.48H233.847V46.8H199.159V2H233.015V10.32H209.463V38.48Z" fill="black"/>
<path d="M249.383 20.048H270.951V28.112H249.383V20.048ZM250.151 38.48H274.535V46.8H239.847V2H273.703V10.32H250.151V38.48Z" fill="black"/>
<path d="M77.9426 1.8534L76.0706 2.02754V11.2137C76.0706 18.4843 76.2012 20.2692 76.6365 19.9645C76.8977 19.7468 80.9466 16.6557 85.5615 13.1293C90.1328 9.60286 93.9204 6.55532 93.9204 6.33763C93.9204 5.85874 88.3043 2.98534 86.3016 2.50644C84.0812 1.94047 80.2936 1.67925 77.9426 1.8534Z" fill="#0BB3D8"/>
<path d="M72.0217 3.46419C67.668 5.24917 63.7498 8.60147 61.573 12.3456L60.7893 13.6952L67.8857 19.3549L74.9821 25.0146L75.2434 20.1386C75.7658 10.8654 75.6787 2.41932 75.1127 2.41932C74.808 2.41932 73.4148 2.89821 72.0217 3.46419Z" fill="#0BB3D8"/>
<path d="M87.6075 12.128C83.994 15.0449 80.99 17.6135 80.9464 17.8748C80.8158 18.2231 100.451 23.2733 102.105 23.3168C103.368 23.3168 101.539 15.8721 99.4929 12.4763C98.448 10.7784 94.8345 6.77301 94.3992 6.81655C94.2686 6.81655 91.1775 9.21105 87.6075 12.128Z" fill="#0BB3D8"/>
<path d="M84.9084 20.3127C85.039 20.661 86.6498 24.1439 88.4783 28.1057C90.3069 32.0675 92.3966 36.5518 93.0932 38.0755L94.3557 40.9054L95.923 39.3816C99.2753 36.1599 101.8 31.0227 102.41 26.3207L102.715 23.9262L94.3993 22.0977C89.828 21.0964 85.7791 20.1386 85.3873 19.9644C84.8213 19.7468 84.6907 19.8774 84.9084 20.3127Z" fill="#0BB3D8"/>
<path d="M85.6812 25.0136C85.492 25.3338 83.7911 28.7737 81.8539 32.6835C79.9167 36.5933 77.7367 41.0343 76.9874 42.5329L75.5764 45.2917L77.7463 45.5558C82.3584 46.1442 87.9428 44.8864 91.9862 42.4104L94.0417 41.1451L90.2473 33.5233C88.1583 29.3357 86.3632 25.5823 86.2529 25.1679C86.0673 24.5906 85.8836 24.5709 85.6812 25.0136Z" fill="#0BB3D8"/>
<path d="M82.8034 28.5104C82.4343 28.5571 78.6736 29.3202 74.3967 30.1847C70.1197 31.0491 65.2742 32.047 63.6308 32.373L60.5859 32.9481L61.7066 34.8249C64.0673 38.8304 68.4827 42.4734 72.9169 44.152L75.1763 45.0014L78.8753 37.3328C80.905 33.1161 82.7718 29.3978 83.0317 29.0568C83.3741 28.5563 83.2772 28.3991 82.8034 28.5104Z" fill="#0BB3D8"/>
<path d="M76.4523 28.0765C76.2105 27.8334 73.5369 25.5189 70.4988 22.8846C67.4607 20.2503 64.0052 17.2762 62.8423 16.2605L60.7088 14.3624L59.9702 16.2365C58.3761 20.2136 58.2032 25.4861 59.4741 29.6664L60.1261 31.7932L67.8038 30.176C72.023 29.2837 75.787 28.5529 76.1821 28.5506C76.74 28.5188 76.8002 28.3596 76.4523 28.0765Z" fill="#0BB3D8"/>
</svg>
